<?xml version="1.0" encoding="UTF-8" standalone="no"?>
<!DOCTYPE svg PUBLIC "-//W3C//DTD SVG 1.1//EN" "http://www.w3.org/Graphics/SVG/1.1/DTD/svg11.dtd">
<!-- Created with Vectornator (http://vectornator.io/) -->
<svg height="4096.0pt" stroke-miterlimit="10" style="fill-rule:nonzero;clip-rule:evenodd;stroke-linecap:round;stroke-linejoin:round;" version="1.1" viewBox="0 0 3452 4096" width="3452.0pt" xml:space="preserve" xmlns="http://www.w3.org/2000/svg" xmlns:xlink="http://www.w3.org/1999/xlink">
<defs/>
<g id="Untitled">
<g opacity="1"/>
<g opacity="1">
<path d="M2029.85 3262.25C2029.85 3243.37 2059 3238.1 2074.78 3227.7C2168.39 3165.97 2261.52 3103.53 2354.69 3041.13C2467.85 2965.36 2670.88 2865.86 2672.62 2702.54C2677.03 2289.12 2675.98 1875.63 2672.62 1462.2C2672.52 1450.18 2667.42 1438.5 2662.25 1427.65C2641.82 1384.75 2612.44 1366.05 2565.49 1365.46C2482.56 1364.42 2399.28 1372.97 2316.68 1365.46C2209.04 1355.67 2167.76 1202.62 2199.18 1120.15C2272.71 927.178 2581.27 985.272 2724.46 1040.69C2758.37 1053.81 2890.33 1122.44 2890.33 1165.07C2909.23 1165.07 2915.72 1193.47 2924.89 1209.98C2959.72 1272.66 2986.74 1344.56 2987.1 1417.28C2989.3 1867.58 2989.29 2317.89 2987.1 2768.19C2986.42 2907.7 2915 3027.27 2817.76 3120.6C2803.24 3134.54 2768.24 3172.42 2748.65 3172.42C2748.65 3174.73 2750.52 3177.99 2748.65 3179.33C2688.67 3222.33 2626.69 3262.47 2565.49 3303.71C2463.48 3372.47 2359.98 3438.85 2257.93 3507.56C2128.86 3594.46 1985.96 3722.4 1829.42 3763.23C1559.11 3833.73 1334.03 3611.24 1127.9 3473.01C990.018 3380.55 846.135 3296.28 713.205 3196.61C446.817 2996.86 465.258 2758.11 464.391 2439.96C463.515 2118.65 462.35 1797.33 464.391 1476.02C465.231 1343.62 488.474 1234.71 581.887 1137.43C703.464 1010.81 935.996 962.442 1103.71 1002.68C1185.77 1022.37 1291.98 1111.47 1269.58 1209.98C1224.03 1410.37 1016.99 1356.54 865.259 1365.46C835.512 1367.21 810.884 1408.54 799.599 1431.1C796.341 1437.62 792.888 1444.55 792.688 1451.83C789.423 1570.42 789.701 1689.07 789.232 1807.7C788.549 1980.45 788.544 2153.2 789.232 2325.95C789.696 2442.27 789.896 2558.61 792.688 2674.9C793.443 2706.35 796.641 2764.64 809.967 2799.28C850.672 2905.1 970.317 2959 1058.78 3016.95C1217.24 3120.74 1374.07 3227.07 1532.22 3331.35C1586.37 3367.06 1660.12 3436.52 1725.74 3448.82C1732.9 3450.17 1740.31 3445.79 1746.48 3441.91C1799.25 3408.81 1849.89 3372.42 1901.99 3338.26C1928.27 3321.03 2001.27 3262.25 2029.85 3262.25Z" fill="#2b8cff" fill-rule="nonzero" opacity="1" stroke="none"/>
<path d="M1414.72 2450.33C1411.27 2450.33 1411.27 2450.33 1407.81 2450.33C1406.09 2443.42 1406.09 2443.42 1404.36 2436.51C1366.03 2436.51 1320.13 2270.51 1317.96 2232.66C1308.94 2074.84 1386.56 1926.23 1525.31 1849.16C1547 1837.11 1569.61 1821.52 1594.42 1821.52C1590.25 1587.76 1598.66 1353.82 1590.97 1120.15C1590.76 1113.73 1452.21 1002.3 1435.46 978.498C1360.04 871.353 1342.39 779.081 1345.61 650.273C1346.67 608.049 1374.24 557.053 1390.53 522.438C1461.38 371.933 1624.48 314.413 1781.04 322.048C1916.18 328.639 2036.64 448.009 2088.6 563.898C2148.6 697.714 2122.89 862.437 2029.85 975.043C1997.61 1014.06 1963.46 1045.07 1922.72 1075.24C1907.54 1086.48 1877.89 1090.9 1877.8 1109.79C1876.66 1345.88 1873.28 1582.02 1877.8 1818.06C1877.87 1821.9 1995 1893.78 2009.12 1907.89C2100.12 1998.88 2150.12 2132.16 2136.98 2260.3C2111.26 2510.96 1823.22 2658.93 1597.88 2588.53C1564.78 2578.19 1414.72 2492.96 1414.72 2450.33Z" fill="#268cff" fill-rule="nonzero" opacity="1" stroke="none"/>
<path d="M1711.92 2028.82C1461.28 2052.25 1518.83 2423.77 1753.39 2384.68C1977.9 2347.27 1944.8 2007.05 1711.92 2028.82Z" fill="#ffffff" fill-rule="nonzero" opacity="1" stroke="none"/>
<path d="M1829.42 2591.98C1831.14 2586.8 1831.14 2586.8 1832.87 2581.62C1836.33 2581.62 1836.33 2581.62 1839.78 2581.62C1840.64 2579.05 1936.04 2533.25 1950.37 2533.25C1950.37 2520.23 2012.48 2481.52 2022.94 2471.06C2052.99 2441.01 2084.43 2390.97 2095.51 2346.68C2098.97 2346.68 2098.97 2346.68 2102.42 2346.68C2123.85 2250.26 2140.41 2177.32 2105.88 2080.64C2086.84 2027.36 2029.48 1978.6 2019.48 1928.62C2014.3 1930.35 2014.3 1930.35 2009.12 1932.08C1989.16 1892.18 1951.7 1870.22 1908.9 1859.52C1908.9 1856.07 1908.9 1856.07 1908.9 1852.61C1850.65 1844.29 1844.22 1836.78 1846.69 1773.15C1849.39 1704.01 1854.83 1635 1857.06 1565.85C1860.89 1447.28 1858.82 1328.6 1860.52 1209.98C1863.97 1209.98 1863.97 1209.98 1867.43 1209.98C1858.48 1169.71 1852.27 1152.38 1860.52 1102.88C1861.73 1095.6 1874.34 1092.98 1874.34 1085.6C1903.85 1079.7 1926.48 1044.14 1953.82 1044.14C1953.82 1038.42 2006.68 978.498 2016.03 978.498C2016.03 959.391 2037.14 955.562 2043.67 947.403C2067.2 918 2076.43 879.387 2088.6 843.753C2107.98 787.011 2105.85 690.2 2102.42 639.908C2098.05 575.87 2044.71 500.741 2005.66 453.338C1994.92 440.295 1933.09 398.366 1933.09 387.693C1894.5 374.832 1907.16 371.377 1867.43 366.963C1867.43 342.578 1808.64 340.005 1787.95 335.868C1747.27 327.734 1705.01 331.402 1663.54 332.413C1653.11 332.667 1642.8 334.716 1632.44 335.868C1669.85 310.933 1748.84 320.478 1781.04 322.048C1952.12 330.392 2104.32 512.995 2119.7 674.458C2132.34 807.171 2080.47 922.346 1991.84 1016.5C1978.91 1030.23 1877.81 1106.33 1877.8 1109.79C1876.66 1345.88 1873.28 1582.02 1877.8 1818.06C1878.24 1841.38 1916.24 1844.59 1936.54 1856.07C1982.27 1881.91 2019.78 1912.87 2050.58 1956.26C2229.37 2208.14 2118.33 2501.72 1829.42 2591.98Z" fill="#0001b3" fill-opacity="0.698039" fill-rule="nonzero" opacity="0" stroke="none"/>
<path d="M782.321 1455.29C783.473 1750.12 784.037 2044.94 785.776 2339.77C786.34 2435.36 786.695 2530.97 789.232 2626.53C791.168 2699.42 790.649 2784.58 834.157 2847.65C885.117 2921.53 987.106 2970 1058.78 3016.95C1217.24 3120.74 1374.07 3227.07 1532.22 3331.35C1551.19 3343.87 1670.45 3416.52 1670.45 3428.09C1663.54 3429.82 1663.54 3429.82 1656.63 3431.55C1656.63 3381.54 1552.96 3387.66 1552.96 3352.08C1532.33 3347.96 1523.69 3334.27 1504.57 3327.9C1504.57 3324.44 1504.57 3324.44 1504.57 3320.99C1495.94 3319.26 1495.94 3319.26 1487.3 3317.53C1487.3 3314.08 1487.3 3314.08 1487.3 3310.62C1467.66 3304.08 1458.73 3293.04 1438.92 3286.44C1438.92 3282.98 1438.92 3282.98 1438.92 3279.53C1435.46 3279.53 1435.46 3279.53 1432 3279.53C1432 3256.56 1359.43 3251.62 1359.43 3224.25C1350.79 3222.52 1350.79 3222.52 1342.15 3220.79C1342.15 3201.96 1271.31 3167.24 1245.39 3158.6C1245.39 3136.39 1167.62 3098.14 1141.72 3089.5C1141.72 3086.05 1141.72 3086.05 1141.72 3082.59C1128.99 3080.47 1103.71 3070.51 1103.71 3054.95C1087.97 3051.02 1062.24 3047.14 1062.24 3027.31C1053.6 3027.31 1053.6 3027.31 1044.96 3027.31C1044.96 3023.86 1044.96 3023.86 1044.96 3020.4C1012.36 3020.4 989.415 2986.25 962.02 2968.58C931.556 2948.93 882.248 2899.54 847.98 2906.39C847.98 2872.18 816.878 2861.39 816.878 2830.38C797.499 2823.92 807.394 2830.46 799.599 2799.28C796.144 2799.28 796.144 2799.28 792.688 2799.28C792.688 2802.74 792.688 2802.74 792.688 2806.19C789.232 2806.19 789.232 2806.19 785.776 2806.19C785.776 2792.37 785.776 2792.37 785.776 2778.55C782.321 2778.55 782.321 2778.55 778.865 2778.55C772.376 2720.17 775.231 2661.09 775.409 2602.35C776.445 2261.46 774.276 1920.56 775.409 1579.67C775.544 1539.13 778.59 1496.32 782.321 1455.29Z" fill="#0e1291" fill-opacity="0.694118" fill-rule="nonzero" opacity="0" stroke="none"/>
<path d="M2669.17 1434.56C2674.35 1434.56 2674.35 1434.56 2679.53 1434.56C2707.27 1600.97 2691.7 1777.9 2686.44 1945.9C2689.9 1945.9 2689.9 1945.9 2693.36 1945.9C2693.36 2191.21 2691.37 2436.51 2689.9 2681.81C2686.44 2681.81 2686.44 2681.81 2682.99 2681.81C2682.99 2730.94 2666.34 2765.65 2655.34 2809.65C2651.89 2809.65 2651.89 2809.65 2648.43 2809.65C2642.49 2839.35 2600.64 2867.79 2579.32 2889.11C2575.86 2887.39 2575.86 2887.39 2572.4 2885.66C2620.84 2837.24 2671.84 2776.21 2672.62 2702.54C2677.03 2289.12 2673.75 1875.65 2672.62 1462.2C2672.6 1452.91 2670.32 1443.77 2669.17 1434.56Z" fill="#3335db" fill-opacity="0.560784" fill-rule="nonzero" opacity="0" stroke="none"/>
<path d="M1895.08 1838.79C1982.88 1868.05 2041.25 1934.98 2085.14 2015C2216.95 2255.3 2078.41 2514.19 1829.42 2591.98C1831.14 2586.8 1831.14 2586.8 1832.87 2581.62C1836.33 2581.62 1836.33 2581.62 1839.78 2581.62C1840.64 2579.05 1936.04 2533.25 1950.37 2533.25C1950.37 2520.23 2012.48 2481.52 2022.94 2471.06C2052.99 2441.01 2084.43 2390.97 2095.51 2346.68C2098.97 2346.68 2098.97 2346.68 2102.42 2346.68C2123.85 2250.26 2140.41 2177.32 2105.88 2080.64C2086.84 2027.36 2029.48 1978.6 2019.48 1928.62C2014.3 1930.35 2014.3 1930.35 2009.12 1932.08C1989.16 1892.18 1951.7 1870.22 1908.9 1859.52C1908.9 1856.07 1908.9 1856.07 1908.9 1852.61C1905.44 1852.61 1905.44 1852.61 1901.99 1852.61C1901.99 1849.16 1901.99 1849.16 1901.99 1845.7C1898.53 1845.7 1898.53 1845.7 1895.08 1845.7C1895.08 1842.25 1895.08 1842.25 1895.08 1838.79Z" fill="#01038e" fill-opacity="0.47451" fill-rule="nonzero" opacity="0" stroke="none"/>
<path d="M2565.49 2889.11C2568.95 2890.84 2568.95 2890.84 2572.4 2892.57C2570.47 2894.78 2530.94 2929.44 2530.94 2934.03C2524.02 2935.76 2524.02 2935.76 2517.11 2937.48C2517.11 2948.9 2365.82 3048.04 2354.69 3048.04C2354.69 3063.43 2339.6 3065.32 2327.05 3065.32C2327.05 3107.6 2216.46 3096.54 2216.46 3155.15C2180.12 3164.23 2154.37 3186.91 2123.16 3206.97C2082.57 3233.06 2042.71 3260.24 2002.2 3286.44C1956.71 3315.87 1911.86 3345.24 1867.43 3372.81C1838.9 3390.52 1813.62 3416.5 1781.04 3424.64C1831.25 3374.44 1911.76 3333.29 1967.65 3296.8C1987.51 3283.84 2006.13 3262.25 2029.85 3262.25C2029.85 3243.37 2059 3238.1 2074.78 3227.7C2168.39 3165.97 2261.52 3103.53 2354.69 3041.13C2424.43 2994.44 2505.65 2948.95 2565.49 2889.11Z" fill="#0b149a" fill-opacity="0.470588" fill-rule="nonzero" opacity="0" stroke="none"/>
<path d="M1549.5 1078.69C1556.41 1080.42 1556.41 1080.42 1563.32 1082.15C1563.32 1098.15 1590.02 1100.18 1604.79 1106.33C1577.9 1267.66 1597.88 1433.39 1597.88 1596.94C1601.34 1596.94 1601.34 1596.94 1604.79 1596.94C1603.64 1644.16 1602.05 1691.37 1601.34 1738.6C1600.9 1767.39 1615.13 1799.7 1601.34 1824.97C1590.47 1844.89 1559.43 1842.47 1539.13 1852.61C1515.82 1864.26 1491.18 1882.72 1470.02 1897.53C1470.02 1858.45 1563.07 1831.97 1594.42 1821.52C1590.25 1587.76 1598.66 1353.82 1590.97 1120.15C1590.33 1100.62 1563.32 1092.51 1549.5 1078.69Z" fill="#0000c2" fill-opacity="0.529412" fill-rule="nonzero" opacity="0" stroke="none"/>
<path d="M854.892 1365.46C831.052 1384.53 793.615 1418.16 792.688 1451.83C789.423 1570.42 789.581 1689.07 789.232 1807.7C788.429 2080.64 789.232 2353.59 789.232 2626.53C779.753 2233.23 771.601 1838.21 785.776 1444.92C786.447 1426.31 806.949 1379.28 827.246 1379.28C827.246 1362.85 842.326 1365.46 854.892 1365.46Z" fill="#3f43d8" fill-opacity="0.32549" fill-rule="nonzero" opacity="0" stroke="none"/>
<path d="M2551.67 999.228C2358.73 1005.26 2178.48 1002.94 2206.09 1251.44C2209.55 1251.44 2209.55 1251.44 2213.01 1251.44C2230.23 1303.1 2265.57 1341.46 2320.13 1355.09C2320.13 1358.55 2320.13 1358.55 2320.13 1362C2197.2 1341.52 2151.8 1177.48 2219.92 1082.15C2291.43 982.05 2443.73 981.242 2551.67 999.228Z" fill="#070eab" fill-opacity="0.466667" fill-rule="nonzero" opacity="0" stroke="none"/>
<path d="M2669.17 1434.56C2674.35 1434.56 2674.35 1434.56 2679.53 1434.56C2680.68 1438.01 2682.98 1441.28 2682.99 1444.92C2684.13 1854.92 2682.99 2264.91 2682.99 2674.9C2680.68 2313.28 2679.17 1951.65 2676.08 1590.03C2675.63 1538.16 2675.6 1486.03 2669.17 1434.56Z" fill="#20237a" fill-opacity="0.603922" fill-rule="nonzero" opacity="0" stroke="none"/>
<path d="M979.299 995.773C1078.88 995.773 1181.86 999.73 1238.48 1095.97C1278.05 1163.22 1279.61 1228.87 1231.57 1292.9C1221.75 1306 1209.93 1324 1193.56 1324C1193.56 1307.59 1227.16 1278.37 1235.03 1265.26C1255.75 1230.74 1257.99 1208.58 1255.76 1168.52C1253.05 1119.74 1169.37 1051.66 1169.37 1033.78C1137.29 1027.36 1113 1016.09 1079.52 1013.05C1079.52 1009.59 1079.52 1009.59 1079.52 1006.14C1045.96 1004.74 1010.48 1008.24 979.299 995.773Z" fill="#1218a3" fill-opacity="0.490196" fill-rule="nonzero" opacity="0" stroke="none"/>
<path d="M1577.15 2108.28C1587.8 2140.25 1542.38 2189.97 1549.5 2232.66C1568.68 2347.72 1672.13 2392.83 1777.58 2377.77C1768.21 2396.5 1735.11 2393.45 1718.83 2391.59C1689.86 2388.28 1660.4 2386.06 1632.44 2377.77C1615.26 2372.68 1607.56 2351.96 1594.42 2339.77C1529.78 2279.75 1546.04 2223.52 1546.04 2146.29C1551.23 2146.29 1551.23 2146.29 1556.41 2146.29C1565.65 2118.56 1558.77 2131.25 1577.15 2108.28Z" fill="#060a96" fill-opacity="0.521569" fill-rule="nonzero" opacity="0" stroke="none"/>
<path d="M2859.23 3065.32C2862.69 3067.05 2862.69 3067.05 2866.14 3068.77C2843.31 3094.87 2784.73 3172.42 2748.65 3172.42C2748.65 3174.73 2750.52 3177.99 2748.65 3179.33C2688.67 3222.33 2626.69 3262.47 2565.49 3303.71C2517 3336.4 2475.38 3397 2416.9 3397C2416.9 3386.71 2528.75 3316.5 2548.21 3303.71C2575.98 3285.47 2602.85 3265.84 2631.15 3248.43C2633.11 3247.23 2635.76 3248.43 2638.06 3248.43C2638.06 3227.96 2678.24 3217.44 2693.36 3206.97C2717.26 3190.43 2736.85 3158.6 2765.93 3158.6C2765.93 3155.15 2765.93 3155.15 2765.93 3151.69C2769.38 3151.69 2769.38 3151.69 2772.84 3151.69C2781.17 3126.71 2816.35 3092.96 2838.5 3092.96C2840.23 3087.78 2840.23 3087.78 2841.95 3082.59C2845.41 3082.59 2845.41 3082.59 2848.87 3082.59C2848.87 3070.8 2847.24 3077.31 2859.23 3065.32Z" fill="#000087" fill-opacity="0.427451" fill-rule="nonzero" opacity="0" stroke="none"/>
<path d="M2092.05 3611.21C2078.5 3651.86 2024.8 3664.64 1988.38 3687.22C1910.62 3735.42 1826.44 3777.05 1732.65 3777.05C1732.65 3773.59 1732.65 3773.59 1732.65 3770.14C1749.93 3768.41 1749.93 3768.41 1767.21 3766.68C1767.21 3763.23 1767.21 3763.23 1767.21 3759.77C1774.12 3761.5 1774.12 3761.5 1781.04 3763.23C1781.04 3758.05 1781.04 3758.05 1781.04 3752.86C1819.89 3752.86 1859.99 3745.38 1895.08 3728.68C1924.38 3714.73 1949.01 3683.76 1981.47 3683.76C1981.47 3677.02 2076.29 3611.21 2092.05 3611.21Z" fill="#050ca3" fill-opacity="0.490196" fill-rule="nonzero" opacity="0" stroke="none"/>
<path d="M823.79 1016.5C797.942 1026.44 771.464 1035.26 744.307 1040.69C744.307 1045.87 744.307 1045.87 744.307 1051.05C708.784 1058.16 629.717 1120.15 606.077 1120.15C606.077 1135.64 582.154 1148.85 571.519 1161.61C568.063 1159.89 568.063 1159.89 564.608 1158.16C612.086 1103.91 750.03 998.067 823.79 1016.5Z" fill="#00009a" fill-opacity="0.478431" fill-rule="nonzero" opacity="0" stroke="none"/>
<path d="M2928.35 1223.8C2969.71 1275.49 2983.64 1348.82 2983.64 1413.83C2981.91 1400.01 2981.91 1400.01 2980.18 1386.19C2975 1386.19 2975 1386.19 2969.82 1386.19C2969.82 1379.28 2969.82 1379.28 2969.82 1372.37C2964.63 1372.37 2964.63 1372.37 2959.45 1372.37C2957.91 1353.86 2957.04 1335.1 2952.54 1317.09C2955.99 1317.09 2955.99 1317.09 2959.45 1317.09C2959.45 1311.91 2959.45 1311.91 2959.45 1306.72C2944.67 1301.8 2933.17 1243.07 2928.35 1223.8Z" fill="#0000b7" fill-opacity="0.623529" fill-rule="nonzero" opacity="0" stroke="none"/>
<path d="M2676.08 2678.36C2684.38 2732.31 2667.38 2761.51 2655.34 2809.65C2651.89 2809.65 2651.89 2809.65 2648.43 2809.65C2642.49 2839.35 2600.64 2867.79 2579.32 2889.11C2575.86 2887.39 2575.86 2887.39 2572.4 2885.66C2634.13 2823.95 2663.54 2766.1 2676.08 2678.36Z" fill="#1c21a3" fill-opacity="0.517647" fill-rule="nonzero" opacity="0" stroke="none"/>
<path d="M1387.08 529.348C1395.27 562.1 1367.18 591.774 1362.89 626.088C1359.43 626.088 1359.43 626.088 1355.98 626.088C1352.93 680.972 1350.47 728.666 1366.34 781.563C1362.89 781.563 1362.89 781.563 1359.43 781.563C1359.43 788.473 1359.43 788.473 1359.43 795.383C1355.98 795.383 1355.98 795.383 1352.52 795.383C1331.34 689.501 1347.81 622.595 1387.08 529.348Z" fill="#0000bf" fill-opacity="0.419608" fill-rule="nonzero" opacity="0" stroke="none"/>
<path d="M2682.99 2236.12C2686.44 2458.97 2686.44 2458.97 2689.9 2681.81C2686.44 2681.81 2686.44 2681.81 2682.99 2681.81C2682.99 2693.91 2682.99 2693.91 2682.99 2706C2682.99 2471.06 2682.99 2471.06 2682.99 2236.12Z" fill="#00019a" fill-opacity="0.882353" fill-rule="nonzero" opacity="0" stroke="none"/>
<path d="M1563.32 360.053C1563.32 371.847 1513.5 401.513 1501.12 401.513C1501.12 417.591 1449.58 448.326 1438.92 460.248C1421.65 479.535 1411.81 504.359 1397.45 525.893C1396.02 528.036 1392.84 528.196 1390.53 529.348C1407.99 476.99 1503.35 360.053 1563.32 360.053Z" fill="#00048c" fill-opacity="0.403922" fill-rule="nonzero" opacity="0" stroke="none"/>
<path d="M2558.58 1002.68C2577.39 1002.68 2748.65 1031.85 2748.65 1057.96C2717.43 1051.72 2690.7 1037.77 2658.8 1033.78C2658.8 1030.32 2658.8 1030.32 2658.8 1026.87C2633.16 1023.66 2608.56 1016.5 2582.77 1016.5C2582.77 1013.05 2582.77 1013.05 2582.77 1009.59C2570.68 1009.59 2570.68 1009.59 2558.58 1009.59C2558.58 1006.14 2558.58 1006.14 2558.58 1002.68Z" fill="#000295" fill-opacity="0.513725" fill-rule="nonzero" opacity="0" stroke="none"/>
<path d="M1470.02 2509.06C1485.2 2509.06 1525.31 2529.88 1525.31 2547.07C1577.97 2564.62 1626 2586.71 1680.82 2598.89C1679.09 2602.35 1679.09 2602.35 1677.36 2605.8C1618.46 2593 1501.43 2571.88 1470.02 2509.06Z" fill="#0000aa" fill-opacity="0.447059" fill-rule="nonzero" opacity="0" stroke="none"/>
<path d="M1767.21 2028.82C1718.24 2031.88 1674.62 2031.16 1632.44 2059.91C1630.84 2061 1592.09 2104.83 1580.6 2104.83C1582.33 2097.92 1582.33 2097.92 1584.06 2091.01C1601.12 2091.01 1627.89 2044.66 1649.72 2035.73C1689.99 2019.26 1726.45 2017.18 1767.21 2028.82Z" fill="#060c9a" fill-opacity="0.470588" fill-rule="nonzero" opacity="0" stroke="none"/>
</g>
</g>
</svg>
